<?xml version="1.0" encoding="UTF-8"?>
<!-- Generator: Adobe Illustrator 15.0.2, SVG Export Plug-In . SVG Version: 6.00 Build 0)  -->
<!DOCTYPE svg PUBLIC "-//W3C//DTD SVG 1.1//EN" "http://www.w3.org/Graphics/SVG/1.1/DTD/svg11.dtd">
<svg xmlns="http://www.w3.org/2000/svg" xmlns:xlink="http://www.w3.org/1999/xlink" version="1.1" id="Layer_1" x="0px" y="0px" width="512px" height="489.386px" viewBox="0 0 512 489.386" enable-background="new 0 0 512 489.386" xml:space="preserve">
<path d="M256,0c141.382,0,256,92.855,256,207.401c0,47.25-19.5,90.815-52.342,125.697c-55.29,60.092-212.06,166.118-225.646,155.553  c-14.664-11.395,7.639-27.435,5.698-64.342c-0.401-7.685-5.112-9.922-7.908-10.422C101.77,404.02,0,315.336,0,207.401  C0,92.855,114.618,0,256,0z M191.935,141.704c-7.349,0-13.303,5.954-13.303,13.303v99.907c0,7.343,5.954,13.29,13.303,13.29  s13.303-5.947,13.303-13.29v-99.907C205.237,147.658,199.283,141.704,191.935,141.704z M102.888,141.711  c-7.349,0-13.302,5.953-13.302,13.296v99.907c0,7.343,5.953,13.303,13.302,13.303h49.954c7.343,0,13.303-5.96,13.303-13.303  c0-7.342-5.96-13.302-13.303-13.302H116.19v-86.605C116.19,147.664,110.237,141.711,102.888,141.711z M237.539,141.704  c-7.349,0-13.302,5.954-13.302,13.303v99.907c0,7.343,5.953,13.303,13.302,13.303s13.303-5.96,13.303-13.303v-62.157l51.803,70.368  c4.382,5.815,12.618,7.026,18.487,2.724c3.46-2.408,5.724-6.408,5.724-10.935v-99.907c0-7.343-5.961-13.303-13.303-13.303  s-13.303,5.96-13.303,13.303v62.368l-51.579-70.072l-4.151-3.618C242.493,142.428,240.099,141.704,237.539,141.704z   M358.079,141.704c-4.264,0-8.053,2-10.487,5.118c-1.776,2.257-2.829,5.099-2.829,8.19v0.151v99.593v0.157  c0,7.343,5.975,13.303,13.316,13.303h50.486c7.355,0,13.303-5.96,13.303-13.303c0-7.342-5.947-13.302-13.303-13.302h-37.197v-23.35  h37.197c7.355,0,13.303-5.953,13.303-13.302s-5.947-13.303-13.303-13.303h-37.197V168.31h37.197c7.355,0,13.303-5.954,13.303-13.297  c0-7.349-5.947-13.302-13.303-13.302H358.25L358.079,141.704z" fill="#F8F8FF"/>
</svg>
